<svg width="78" height="19" viewBox="0 0 78 19" fill="none" xmlns="http://www.w3.org/2000/svg">
<path d="M-1.19209e-07 14.4V0.400001H9.3V2.82H3V6.22H7.96V8.56H3V14.4H-1.19209e-07ZM11.2295 14.4V9.53674e-07H14.2295V14.4H11.2295ZM20.635 14.64C19.795 14.64 19.0817 14.4667 18.495 14.12C17.9217 13.7733 17.4817 13.2667 17.175 12.6C16.8817 11.92 16.735 11.0933 16.735 10.12V4.32H19.735V9.82C19.735 10.5667 19.8883 11.14 20.195 11.54C20.5017 11.9267 20.995 12.12 21.675 12.12C22.0883 12.12 22.455 12.0267 22.775 11.84C23.1083 11.6533 23.3617 11.38 23.535 11.02C23.7217 10.66 23.815 10.22 23.815 9.7V4.32H26.815V14.4H24.195L23.955 12.8C23.6617 13.3467 23.235 13.7933 22.675 14.14C22.115 14.4733 21.435 14.64 20.635 14.64ZM34.3731 14.64C33.3331 14.64 32.4198 14.4267 31.6331 14C30.8465 13.56 30.2265 12.9533 29.7731 12.18C29.3331 11.3933 29.1131 10.4933 29.1131 9.48C29.1131 8.44 29.3331 7.51333 29.7731 6.7C30.2131 5.88667 30.8265 5.24667 31.6131 4.78C32.3998 4.31333 33.3131 4.08 34.3531 4.08C35.3665 4.08 36.2531 4.3 37.0131 4.74C37.7731 5.18 38.3665 5.78 38.7931 6.54C39.2331 7.28667 39.4531 8.15333 39.4531 9.14C39.4531 9.27333 39.4465 9.42667 39.4331 9.6C39.4331 9.76 39.4198 9.92667 39.3931 10.1H31.2531V8.36H36.3931C36.3665 7.8 36.1598 7.35333 35.7731 7.02C35.3998 6.67333 34.9331 6.5 34.3731 6.5C33.9465 6.5 33.5598 6.6 33.2131 6.8C32.8665 7 32.5865 7.3 32.3731 7.7C32.1731 8.1 32.0731 8.60667 32.0731 9.22V9.82C32.0731 10.2867 32.1598 10.7 32.3331 11.06C32.5198 11.42 32.7798 11.7 33.1131 11.9C33.4598 12.1 33.8665 12.2 34.3331 12.2C34.7731 12.2 35.1331 12.1133 35.4131 11.94C35.7065 11.7533 35.9331 11.52 36.0931 11.24H39.1531C38.9665 11.88 38.6465 12.46 38.1931 12.98C37.7398 13.4867 37.1865 13.8933 36.5331 14.2C35.8798 14.4933 35.1598 14.64 34.3731 14.64ZM41.6592 14.4V4.32H44.2792L44.5192 5.94C44.8259 5.38 45.2592 4.93333 45.8192 4.6C46.3792 4.25333 47.0592 4.08 47.8592 4.08C48.6992 4.08 49.4059 4.26 49.9792 4.62C50.5526 4.98 50.9859 5.5 51.2792 6.18C51.5859 6.84667 51.7392 7.66667 51.7392 8.64V14.4H48.7592V8.92C48.7592 8.18667 48.5992 7.62 48.2792 7.22C47.9726 6.80667 47.4792 6.6 46.7992 6.6C46.3992 6.6 46.0326 6.7 45.6992 6.9C45.3792 7.08667 45.1259 7.36 44.9392 7.72C44.7526 8.08 44.6592 8.51333 44.6592 9.02V14.4H41.6592ZM58.9573 14.4C58.224 14.4 57.5773 14.2867 57.0173 14.06C56.4573 13.82 56.024 13.4333 55.7173 12.9C55.4107 12.3667 55.2573 11.64 55.2573 10.72V6.82H53.5373V4.32H55.2573L55.5773 1.48H58.2573V4.32H60.8373V6.82H58.2573V10.76C58.2573 11.16 58.344 11.4467 58.5173 11.62C58.704 11.78 59.0173 11.86 59.4573 11.86H60.8373V14.4H58.9573ZM64.4836 18.8L66.9036 13.28H66.3036L62.2436 4.32H65.5036L68.2836 10.46L70.6036 4.32H73.8236L67.6636 18.8H64.4836Z" fill="white"/>
<path d="M75.3639 14.5C74.8172 14.5 74.3706 14.34 74.0239 14.02C73.6906 13.6867 73.5239 13.2867 73.5239 12.82C73.5239 12.34 73.6906 11.94 74.0239 11.62C74.3706 11.2867 74.8172 11.12 75.3639 11.12C75.8972 11.12 76.3306 11.2867 76.6639 11.62C76.9972 11.94 77.1639 12.34 77.1639 12.82C77.1639 13.2867 76.9972 13.6867 76.6639 14.02C76.3306 14.34 75.8972 14.5 75.3639 14.5Z" fill="#DD3C3C"/>
</svg>
